<svg xmlns="http://www.w3.org/2000/svg" width="300" height="200" fill="#22d3ee"><path d="M177 13c2.314 1.055 4.649 2.029 7 3v2l2.371.55 3.066.762 3.06.739L195 21c.995 2.985 1.104 4.952 1.063 8.063l-.028 2.66L196 34v2h2l-1 5h-2l-.062 1.813C194 45 194 45 190.438 46.75L187 48c2.245 6.182 4.002 9.751 10 13a242 242 0 0 1 4 3c-.755 5.853-3.113 11.779-6.936 16.279-2.15 2.835-3.186 5.187-4.318 8.545-.38 1.112-.76 2.224-1.15 3.37l-1.159 3.493-1.17 3.436c-2.004 5.925-3.88 11.834-5.407 17.901-1.568 3.602-4.353 4.52-7.86 5.976 7.63 9.782 16.953 14.17 28.313 18.75l3.794 1.557a437 437 0 0 0 19.877 7.552l1.943.684a674 674 0 0 0 9.236 3.16l3.34 1.14 2.933.975c3.488 1.608 5.744 3.582 7.505 7.019l.621 1.893.72 2.16.718 2.298.768 2.38C259 192.349 259 192.349 259 200l-3-1c-1.027-2.633-1.027-2.633-1.937-6.125l-1.028-3.828q-.778-3.022-1.54-6.049A410 410 0 0 0 248 170l-.684-2.547c-1.272-3.506-2.505-5.02-5.828-6.793-2.806-1.102-5.628-2.074-8.499-2.993-3.636-1.22-7.177-2.685-10.739-4.105a510 510 0 0 0-18.25-6.75c-19.622-6.847-19.622-6.847-26.645-12.914l-1.905-1.643L174 131l-.519 2.643q-.964 4.896-1.935 9.79l-.832 4.222q-.6 3.05-1.206 6.099l-.73 3.697c-.784 3.579-1.735 7.04-2.778 10.549h2l-.416 1.64a562 562 0 0 0-1.924 8.114l-1.597 6.809-.803 3.482-.787 3.334-.711 3.049C161 197 161 197 159 200h-2c.62-6.476 1.668-12.712 3.063-19.062l.564-2.624q.682-3.158 1.373-6.314-1.192 3.75-2.375 7.5l-.672 2.11c-1.5 4.762-2.78 9.536-3.953 14.39l-1 4-3-1c-4.694-29.612-4.694-29.612-2-35h2v2l3-2a348 348 0 0 0-4-5l-1.352-1.707c-1.586-1.525-1.586-1.525-3.84-1.254l-2.37.586-2.38.54c-2.41.753-2.41.753-4.058 3.835 2.71 2.673 2.71 2.673 6 4 .291 7.553-.561 14.582-1.937 22l-.553 3.137c-1.36 7.562-1.36 7.562-2.51 9.863-3.845.09-7.247-.188-11-1q-1.259-4.122-2.5-8.25l-.723-2.355-.683-2.286-.635-2.094C121 182 121 182 121 178h-2c-2.01-5.004-3.158-9.536-3.437-14.937-.352-5.946-2.02-10.716-4.563-16.063l-3 1c.095-.592.19-1.183.29-1.793.652-4.65 1.055-7.93-1.29-12.207l-1.434 1.355-2.004 1.833-1.933 1.792c-6.961 5.348-15.234 8.843-23.129 12.583l-2.973 1.42c-14.419 6.863-14.419 6.863-21.074 9.333-5.401 2.102-9.755 3.848-12.453 9.184-3.306 9.152-5.042 18.985-7 28.5h-2c-.857-11.996 2.63-27.337 10-37 2.33-1.318 2.33-1.318 5.086-2.309 7.722-2.969 15.166-6.43 22.65-9.947a977 977 0 0 1 4.788-2.227C89.357 142.125 102.588 136 110 122h2c1.666-13.806-8.628-25.676-15.98-36.523C81.673 64.279 81.673 64.279 83.684 53.25 85.4 45.232 87.943 38.15 92 31l1.078-2.324c5.169-10.72 14.637-15.617 25.371-19.492C122.62 7.794 126.654 6.646 131 6l2.086-.332c15.677-2.122 30-.305 43.914 7.332m-57-1-2.02.64c-5.628 1.914-10.166 4.92-14.98 8.36l-2.812 1.75c-2.872 2.953-3.883 6.046-5.196 9.91C94 35 94 35 92.527 36.37c-2.88 3.075-3.305 7.378-4.277 11.38l-.707 2.672c-1.955 7.867-1.63 13.366 2.52 20.516l1.66 2.902L93 76h2l1.375-2.937C98 70 98 70 100 69c1.874-.07 3.75-.084 5.625-.062l3.04.027L111 69l1 3c2.015.733 2.015.733 4 1l-1-7 4-1v-2l2.125-.367C126.82 61.627 132.409 60.477 138 59v-2c10.559-4.693 19.106-3.145 30 0l2-4v8h3l1-4 4 1c1.584-3.04 2.086-4.557 1.426-7.973l-1.113-3.09-1.075-3.097c-1.153-2.645-2.4-4.632-4.238-6.84 4.509 2.319 6.94 5.065 10 9 2.992-.775 2.992-.775 6-2 1.208-3.623.543-4.641-1-8h4l1-10-1.863-1.242L181 18c-2.625-.167-2.625-.167-5 0l3 1-1 4c-2.932-2.853-5.643-5.65-8-9l-2 1v5l-3-4c-1.985.267-1.985.267-4 1l-1 3-2-2-1 2-.375-3.25c-.683-4.154-.683-4.154-2.625-7.75-3-1.333-3-1.333-6 0l-3.875-.562c-8.212-1.049-16.4.835-24.125 3.562m43-3 1 3Zm-6 1 2 3v-3zm2 3 2 4-1-4zm21 35 2 7-2 1h5c-1.186-3.375-2.276-5.647-5-8m-30 9v4l-3-1-2 1c.608 8.516 3.35 14.543 9 21 2.452-.106 2.452-.106 5-1 1.233-2.457 1.233-2.457 2-5l2-1v-4l3-1c2.087-3.756 1.96-5.914 1-10q-3.12-1.048-6.25-2.062l-3.516-1.16c-3.035-.73-4.391-.897-7.234.222m29 6-2-2-3 2v2h4l-.25 2.5c.322 4.513 2.043 7.618 4.25 11.5-3.904-3.47-6.366-7.552-9-12-3.811 1.468-5.137 3.368-7.125 6.875l-1.508 2.617a97 97 0 0 0-2.437 4.758C159.886 85.097 154.9 85.759 151 87v-3h-2l-.375-2.312c-.506-2.89-.506-2.89-2.625-5.688-3.088-1.362-3.088-1.362-6.687-2.5-7.653-2.572-7.653-2.572-11.25-4.312-3.53-1.37-6.309-1.418-10.063-1.188l-.148 2.59-.227 3.347c-.07 1.103-.14 2.205-.21 3.34L117 80l-2 1-.625-2.25c-1.771-3.542-4.01-4.774-7.375-6.75l-2 1 1.375 2.688A99 99 0 0 1 110 84h2l1 5 3 1c1.167 1.858 1.167 1.858 2.262 4.254l1.2 2.588c.405.898.81 1.795 1.225 2.72l1.26 2.733A905 905 0 0 1 125 109h5v2l-3 1c2.738 5.118 2.738 5.118 7.57 7.957q2.875.67 5.758 1.3c3.95 1.098 5.906 2.753 8.672 5.743v3l-1.871-1.645c-5.897-5.011-5.897-5.011-12.941-7.98-5.802-1.649-7.94-5.208-10.82-10.21A341 341 0 0 1 119 102l-3 2-1-2 2-1-1-4-7 1a65 65 0 0 0 4.063 7.188c2.285 4.404 2.21 8.53 2.312 13.374.034 6.571.034 6.571 2.813 12.313 1.652 1.536 1.652 1.536 3.812 3.125q1.705 1.386 3.406 2.777c7.288 6.88 7.288 6.88 15.719 10.036L143 146l1-3h2l1 3c8.957-6.964 17.386-13.953 22.504-24.273C171 120 171 120 174.454 118.863c2.415-.95 3.334-1.483 4.612-3.778.843-2.488 1.507-4.968 2.121-7.522l1.481-5.454.693-2.666c2.074-7.927 4.365-14.485 9.178-21.13 2.598-4.112 3.995-8.7 5.461-13.313l-3.375-2.062-1.898-1.16L191 61l-2 1-1-3c-3.999 0-5.802 1.726-9 4m-55 1c2.462 2.462 4.434 2.91 7.75 3.938 4.328 1.388 8.282 2.857 12.25 5.062v-3h-3v-2l-3-2 3-1v-2c-5.778-.12-11.28.168-17 1m-24 7v1h5v-1zm-3 4c-.176 3.875-.283 6.755 2 10l3 1 .875-3.437L104 79l2-1-4-2-2 5-2-6zm9 10c-.652 2.025-.652 2.025-1 4h2v2l-3 1c3.553 2.564 3.553 2.564 7.813 2.688L114 94v-2l-5-1 3-2h-3l1-5c-2.075-.15-2.075-.15-4 1m6 37c-.618 11.006.71 22.216 6 32l1 2.313c.959 2.037.959 2.037 4 2.687 1.188 3.063 1.188 3.063 2 6 3.916-2.794 3.916-2.794 6-7 2.066-1.824 2.066-1.824 4.563-3.687l2.503-1.887L140 151l-1.805-.805c-2.258-1.23-3.582-2.443-5.32-4.32-2.818-2.927-5.773-5.407-9-7.875-4.996-3.931-8.941-7.625-10.687-13.937L113 122zm57 3a85 85 0 0 0-3 4.875c-5.146 8.326-12.949 18.286-22.875 20.875L141 151c1.759 2.17 1.759 2.17 3.91 2.23 3.857.308 3.857.308 7.09-1.23l1.688 3.125c2.083 3.667 4.532 6.71 7.312 9.875 2.49-2.924 3.596-5.162 4-9l-1-2h2c3.14-9.506 4.073-19.09 5-29zm-49 37c.9 11.478 4.622 27.622 13 36 3.289-3.289 3.351-7.721 4.188-12.187l.576-2.83c1.02-5.348 1.394-9.65.236-14.983h-1l-1 5-.812-1.937c-1.075-2.394-1.075-2.394-4.188-3.063h-4c-2.569-1.835-4.77-3.77-7-6m13 0-2 4h5l-2-4zm3 4 1 2Zm14 1v7h1v-7zm7 0c-3.196 4.066-3.196 4.066-4 9h-2l2 16c2.015-3.023 2.464-4.607 3.07-8.105l.528-2.979.527-3.103c.182-1.036.364-2.072.55-3.14q.673-3.834 1.325-7.673zm6 0 1 3Zm-35 29 1 2Z"/><path d="m175 81-.562 3.125c-.419 3.704-.514 6.317.562 9.875 1.952 1.436 1.952 1.436 4 2v2q-3.78.508-7.562 1l-2.135.29c-4.477.577-8.79.805-13.303.71v5l-4-1c-.35-3.678-.137-5.726 1.531-9.062 3.024-3.598 5.792-4.4 10.219-5.313l2.113-.496c1.708-.398 3.422-.766 5.137-1.129h-8l-2-4c9.41-3.444 9.41-3.444 14-3m-11 13c3.105 1.21 3.105 1.21 7 1v-2l2-1c-3.625-.201-5.865.142-9 2m-7 3 7-1v-1c-3.955-.348-3.955-.348-7 2M144.941 29.902l3.621.035 3.63.028L155 30l1 3h-11v2c-2.266 1.621-2.266 1.621-5.25 3.438-3.37 2.064-6.63 4.133-9.75 6.562l-2-1 1-3-1-2c-2.185 2.676-2.185 2.676-2 5h-2v2c-1.812 1.063-1.812 1.063-4 2l-3-1a669 669 0 0 1 4.75-5.437l1.344-1.565c2.513-2.827 4.135-4.474 7.906-4.998q2.608-.963 5.188-2l2.667-1.062c4.538-1.984 4.538-1.984 6.086-2.036M132 108c3.818.674 7.338 1.732 11 3q2.25.753 4.5 1.5L158 116v3c-6.378-.368-11.311-2.231-17.145-4.79-3.253-1.379-6.432-2.354-9.855-3.21z"/><path d="M165 102h7l-1 3 2 2q-2.621 1.011-5.25 2l-2.953 1.125C162 111 162 111 158 111v-5l6-1zM122 17c4.457.262 6.515.577 9.938 3.563L134 23l-2.25-.125c-2.838.129-4.338.696-6.75 2.125v-3l-1 2c-4.401-.503-6.712-2.088-10-5h8zM170 111l3 1c-.989 2.696-1.66 3.806-4.187 5.25-3.355.895-6.356.886-9.813.75l2-3h3v-3l5 1zM140 12l2.188.438c2.765.614 2.765.614 5.437.75C150 14 150 14 151.813 16.938 153 20 153 20 153 22c-3.884-.57-5.897-2.39-8.75-5l-2.422-2.187L140 13zM124 13c3.958.565 6.666 1.809 10 4v-2c4.677 1.477 4.677 1.477 6.313 4.125L141 21c-6.374 1.006-11.033-2.39-16-6zm10 4 2 2v-2zM171 69h2v4l1 1a88 88 0 0 1-1 5l-5 1c.114-1.46.242-2.917.375-4.375.07-.812.14-1.624.21-2.46C169 71 169 71 171 69M108.563 36.938 111 37l1 6-9 1 4-4-2-2c1-1 1-1 3.563-1.062M123 49c.944 2.539 1.17 3.61.074 6.14l-1.386 2.11-1.364 2.14L119 61h-2c.607-4.128 1.94-7.374 4-11zM157 30c4.128.607 7.332 2.038 11 4v2c-4.355-.506-7.442-1.384-11-4zM193.75 65.75 196 66l-1 3-8 1c3.323-3.938 3.323-3.938 6.75-4.25"/><path d="M140 15c6.571 4 6.571 4 8 8-3.323-1.168-5.834-2.15-8-5zM190 165h2c-1.875 5.75-1.875 5.75-3 8h-2c1.875-5.75 1.875-5.75 3-8M187 71l2 1c.407 2.322.744 4.657 1 7l-2-1a109 109 0 0 1-1-7M171 19h2l1 5h-3zM143 10l6 1v2l-6-1zM169 34l3 1v3h-3zM107 27h5v2h-6zM116 23l4 1v3l-4-2zM186 176l1 4-3 1zM151 12h3v3h-3zM109 77h3v3l-3-1zM113 25l4 1v2l-4-2zM181 186h2l-1 4zM113 30h3v2l-4-1zM99 171l2 1-1 3zM104 47h6v1h-6zM108 33h6v1h-6zM129 187h2l-1 3zM183 182h2l-1 3zM97 175h2l-1 3zM95 171h2l-1 3zM160 112l3 1-3 1zM113 44l3 1-3 1zM121 26l3 1-3 1zM113 82h2v2h-2zM167 51l1 4ZM108 30l3 1Z"/></svg>